<svg xmlns="http://www.w3.org/2000/svg" viewBox="0 0 1024 1024" width="1024" height="1024">
  <defs>
    <linearGradient id="bg" x1="0" y1="0" x2="0" y2="1">
      <stop offset="0%" stop-color="#7CC4F0"/>
      <stop offset="100%" stop-color="#2D89D6"/>
    </linearGradient>
    <linearGradient id="sky" x1="0" y1="0" x2="0" y2="1">
      <stop offset="0%" stop-color="#BFE3F7"/>
      <stop offset="100%" stop-color="#5BB7E8"/>
    </linearGradient>
    <filter id="polaroidShadow" x="-20%" y="-20%" width="140%" height="140%">
      <feGaussianBlur in="SourceAlpha" stdDeviation="14"/>
      <feOffset dy="12"/>
      <feComponentTransfer><feFuncA type="linear" slope="0.18"/></feComponentTransfer>
      <feMerge><feMergeNode/><feMergeNode in="SourceGraphic"/></feMerge>
    </filter>
    <clipPath id="photoClip">
      <rect x="-276" y="-336" width="552" height="552"/>
    </clipPath>
  </defs>

  <rect width="1024" height="1024" fill="url(#bg)"/>

  <g transform="translate(512 540) rotate(-8)">
    <rect x="-300" y="-360" width="600" height="720" rx="20" fill="#FAFAFA" filter="url(#polaroidShadow)"/>
    <g clip-path="url(#photoClip)">
      <rect x="-276" y="-336" width="552" height="552" fill="url(#sky)"/>

      <circle cx="180" cy="-250" r="40" fill="#FFE796"/>
      <circle cx="180" cy="-250" r="30" fill="#FFD63F"/>

      <g fill="#FFFFFF">
        <ellipse cx="-170" cy="-250" rx="36" ry="12"/>
        <ellipse cx="-140" cy="-244" rx="26" ry="10"/>
        <ellipse cx="-190" cy="-244" rx="20" ry="8"/>
        <ellipse cx="60"  cy="-290" rx="32" ry="11"/>
        <ellipse cx="85"  cy="-282" rx="22" ry="9"/>
        <ellipse cx="100" cy="-200" rx="24" ry="9"/>
        <ellipse cx="120" cy="-194" rx="18" ry="7"/>
      </g>

      <rect x="-276" y="-10"  width="100" height="226" fill="#D8C5A8"/>
      <rect x="-210" y="-90"  width="80"  height="306" fill="#C8B398"/>
      <rect x="-150" y="-50"  width="110" height="266" fill="#D8C5A8"/>
      <rect x="-70"  y="-160" width="90"  height="376" fill="#B8A488"/>
      <rect x="10"   y="-100" width="100" height="316" fill="#C8B398"/>
      <rect x="100"  y="-50"  width="90"  height="266" fill="#D8C5A8"/>
      <rect x="180"  y="-20"  width="96"  height="236" fill="#C8B398"/>

      <rect x="-260" y="50"  width="70" height="166" fill="#F0D5B0"/>
      <rect x="-185" y="0"   width="80" height="216" fill="#E8B580"/>
      <rect x="-100" y="30"  width="70" height="186" fill="#F0D5B0"/>
      <rect x="-30"  y="-40" width="80" height="256" fill="#E8B580"/>
      <rect x="60"   y="10"  width="90" height="206" fill="#F0D5B0"/>
      <rect x="160"  y="40"  width="70" height="176" fill="#E8B580"/>
      <rect x="230"  y="60"  width="46" height="156" fill="#F0D5B0"/>

      <rect x="-276" y="200" width="552" height="16" fill="#8A7A5C"/>

      <g fill="#4A5C73">
        <rect x="-50" y="-130" width="5" height="5"/>
        <rect x="-22" y="-130" width="5" height="5"/>
        <rect x="-36" y="-114" width="5" height="5"/>
        <rect x="-8"  y="-114" width="5" height="5"/>
        <rect x="-50" y="-98"  width="5" height="5"/>
        <rect x="-22" y="-98"  width="5" height="5"/>
        <rect x="-8"  y="-98"  width="5" height="5"/>
        <rect x="-36" y="-82"  width="5" height="5"/>
        <rect x="-50" y="-68"  width="5" height="5"/>
        <rect x="-22" y="-68"  width="5" height="5"/>

        <rect x="30" y="-80" width="5" height="5"/>
        <rect x="62" y="-80" width="5" height="5"/>
        <rect x="46" y="-64" width="5" height="5"/>
        <rect x="78" y="-64" width="5" height="5"/>
        <rect x="30" y="-48" width="5" height="5"/>
        <rect x="62" y="-48" width="5" height="5"/>
        <rect x="78" y="-32" width="5" height="5"/>
        <rect x="46" y="-16" width="5" height="5"/>

        <rect x="120" y="-30" width="5" height="5"/>
        <rect x="152" y="-30" width="5" height="5"/>
        <rect x="136" y="-16" width="5" height="5"/>
        <rect x="168" y="-16" width="5" height="5"/>

        <rect x="-165" y="26"  width="5" height="5"/>
        <rect x="-149" y="26"  width="5" height="5"/>
        <rect x="-133" y="46"  width="5" height="5"/>
        <rect x="-165" y="46"  width="5" height="5"/>
        <rect x="-149" y="66"  width="5" height="5"/>
        <rect x="-133" y="86"  width="5" height="5"/>
        <rect x="-165" y="106" width="5" height="5"/>
        <rect x="-149" y="126" width="5" height="5"/>

        <rect x="-10" y="-14" width="5" height="5"/>
        <rect x="6"   y="8"   width="5" height="5"/>
        <rect x="22"  y="8"   width="5" height="5"/>
        <rect x="-10" y="30"  width="5" height="5"/>
        <rect x="6"   y="52"  width="5" height="5"/>
        <rect x="22"  y="74"  width="5" height="5"/>
        <rect x="-10" y="96"  width="5" height="5"/>
        <rect x="6"   y="118" width="5" height="5"/>

        <rect x="80"  y="40"  width="5" height="5"/>
        <rect x="112" y="40"  width="5" height="5"/>
        <rect x="96"  y="60"  width="5" height="5"/>
        <rect x="128" y="80"  width="5" height="5"/>
        <rect x="80"  y="100" width="5" height="5"/>
        <rect x="112" y="120" width="5" height="5"/>
        <rect x="96"  y="140" width="5" height="5"/>

        <rect x="180" y="70"  width="5" height="5"/>
        <rect x="196" y="70"  width="5" height="5"/>
        <rect x="212" y="90"  width="5" height="5"/>
        <rect x="180" y="110" width="5" height="5"/>
        <rect x="196" y="130" width="5" height="5"/>
        <rect x="212" y="150" width="5" height="5"/>
      </g>
    </g>
  </g>

  <g transform="translate(770 130)">
    <path d="M0,-72 C46,-72 72,-46 72,-12 C72,34 0,108 0,108 C0,108 -72,34 -72,-12 C-72,-46 -46,-72 0,-72 Z" fill="#E63946"/>
    <circle cx="0" cy="-12" r="22" fill="#FFFFFF"/>
  </g>
</svg>
