<svg xmlns="http://www.w3.org/2000/svg" viewBox="0 0 1024 1024" width="1024" height="1024">
  <defs>
    <linearGradient id="bg" x1="0" y1="0" x2="0" y2="1">
      <stop offset="0%" stop-color="#2A1B4A"/>
      <stop offset="100%" stop-color="#0E0820"/>
    </linearGradient>
    <linearGradient id="sky" x1="0" y1="0" x2="0" y2="1">
      <stop offset="0%" stop-color="#1A2440"/>
      <stop offset="100%" stop-color="#4B2E6E"/>
    </linearGradient>
    <filter id="polaroidShadow" x="-20%" y="-20%" width="140%" height="140%">
      <feGaussianBlur in="SourceAlpha" stdDeviation="14"/>
      <feOffset dy="12"/>
      <feComponentTransfer><feFuncA type="linear" slope="0.28"/></feComponentTransfer>
      <feMerge><feMergeNode/><feMergeNode in="SourceGraphic"/></feMerge>
    </filter>
    <clipPath id="photoClip">
      <rect x="-276" y="-336" width="552" height="552"/>
    </clipPath>
    <mask id="moonMask">
      <rect x="-276" y="-336" width="552" height="552" fill="white"/>
      <circle cx="196" cy="-254" r="28" fill="black"/>
    </mask>
  </defs>

  <rect width="1024" height="1024" fill="url(#bg)"/>

  <g transform="translate(512 540) rotate(-8)">
    <rect x="-300" y="-360" width="600" height="720" rx="20" fill="#EDEAE2" filter="url(#polaroidShadow)"/>
    <g clip-path="url(#photoClip)">
      <rect x="-276" y="-336" width="552" height="552" fill="url(#sky)"/>

      <circle cx="180" cy="-250" r="32" fill="#F4EFD8" mask="url(#moonMask)"/>

      <g fill="#FFFFFF">
        <circle cx="-220" cy="-300" r="2"/>
        <circle cx="-160" cy="-280" r="1.5"/>
        <circle cx="-100" cy="-310" r="2"/>
        <circle cx="-40"  cy="-260" r="1.5"/>
        <circle cx="40"   cy="-300" r="2"/>
        <circle cx="120"  cy="-320" r="1.5"/>
        <circle cx="230"  cy="-300" r="2"/>
        <circle cx="-200" cy="-220" r="1.5"/>
        <circle cx="80"   cy="-220" r="1.5"/>
        <circle cx="240"  cy="-200" r="2"/>
      </g>

      <rect x="-276" y="-10"  width="100" height="226" fill="#4F3074"/>
      <rect x="-210" y="-90"  width="80"  height="306" fill="#3D2C5E"/>
      <rect x="-150" y="-50"  width="110" height="266" fill="#4F3074"/>
      <rect x="-70"  y="-160" width="90"  height="376" fill="#2D1F4A"/>
      <rect x="10"   y="-100" width="100" height="316" fill="#3D2C5E"/>
      <rect x="100"  y="-50"  width="90"  height="266" fill="#4F3074"/>
      <rect x="180"  y="-20"  width="96"  height="236" fill="#3D2C5E"/>

      <rect x="-260" y="50"  width="70" height="166" fill="#241A40"/>
      <rect x="-185" y="0"   width="80" height="216" fill="#160F2C"/>
      <rect x="-100" y="30"  width="70" height="186" fill="#241A40"/>
      <rect x="-30"  y="-40" width="80" height="256" fill="#160F2C"/>
      <rect x="60"   y="10"  width="90" height="206" fill="#241A40"/>
      <rect x="160"  y="40"  width="70" height="176" fill="#160F2C"/>
      <rect x="230"  y="60"  width="46" height="156" fill="#241A40"/>

      <g fill="#FFE38A">
        <rect x="-50" y="-130" width="5" height="5"/>
        <rect x="-22" y="-130" width="5" height="5"/>
        <rect x="-36" y="-114" width="5" height="5"/>
        <rect x="-8"  y="-114" width="5" height="5"/>
        <rect x="-50" y="-98"  width="5" height="5"/>
        <rect x="-22" y="-98"  width="5" height="5"/>
        <rect x="-8"  y="-98"  width="5" height="5"/>
        <rect x="-36" y="-82"  width="5" height="5"/>
        <rect x="-50" y="-68"  width="5" height="5"/>
        <rect x="-22" y="-68"  width="5" height="5"/>

        <rect x="30" y="-80" width="5" height="5"/>
        <rect x="62" y="-80" width="5" height="5"/>
        <rect x="46" y="-64" width="5" height="5"/>
        <rect x="78" y="-64" width="5" height="5"/>
        <rect x="30" y="-48" width="5" height="5"/>
        <rect x="62" y="-48" width="5" height="5"/>
        <rect x="78" y="-32" width="5" height="5"/>
        <rect x="46" y="-16" width="5" height="5"/>

        <rect x="120" y="-30" width="5" height="5"/>
        <rect x="152" y="-30" width="5" height="5"/>
        <rect x="136" y="-16" width="5" height="5"/>
        <rect x="168" y="-16" width="5" height="5"/>

        <rect x="-165" y="26"  width="5" height="5"/>
        <rect x="-149" y="26"  width="5" height="5"/>
        <rect x="-133" y="46"  width="5" height="5"/>
        <rect x="-165" y="46"  width="5" height="5"/>
        <rect x="-149" y="66"  width="5" height="5"/>
        <rect x="-133" y="86"  width="5" height="5"/>
        <rect x="-165" y="106" width="5" height="5"/>
        <rect x="-149" y="126" width="5" height="5"/>

        <rect x="-10" y="-14" width="5" height="5"/>
        <rect x="6"   y="8"   width="5" height="5"/>
        <rect x="22"  y="8"   width="5" height="5"/>
        <rect x="-10" y="30"  width="5" height="5"/>
        <rect x="6"   y="52"  width="5" height="5"/>
        <rect x="22"  y="74"  width="5" height="5"/>
        <rect x="-10" y="96"  width="5" height="5"/>
        <rect x="6"   y="118" width="5" height="5"/>

        <rect x="80"  y="40"  width="5" height="5"/>
        <rect x="112" y="40"  width="5" height="5"/>
        <rect x="96"  y="60"  width="5" height="5"/>
        <rect x="128" y="80"  width="5" height="5"/>
        <rect x="80"  y="100" width="5" height="5"/>
        <rect x="112" y="120" width="5" height="5"/>
        <rect x="96"  y="140" width="5" height="5"/>

        <rect x="180" y="70"  width="5" height="5"/>
        <rect x="196" y="70"  width="5" height="5"/>
        <rect x="212" y="90"  width="5" height="5"/>
        <rect x="180" y="110" width="5" height="5"/>
        <rect x="196" y="130" width="5" height="5"/>
        <rect x="212" y="150" width="5" height="5"/>
      </g>

      <rect x="-276" y="200" width="552" height="16" fill="#0A0518"/>

      <g>
        <rect x="-234" y="190" width="4" height="26" fill="#2D1810"/>
        <polygon points="-248,190 -218,190 -232,150" fill="#1F4D33"/>

        <ellipse cx="-192" cy="208" rx="22" ry="9" fill="#2C5F3F"/>

        <rect x="-152" y="188" width="4" height="28" fill="#2D1810"/>
        <circle cx="-150" cy="178" r="16" fill="#235A3E"/>

        <ellipse cx="-110" cy="210" rx="24" ry="10" fill="#306B48"/>

        <rect x="-72" y="180" width="4" height="36" fill="#2D1810"/>
        <polygon points="-86,180 -54,180 -70,138" fill="#173B27"/>

        <ellipse cx="-30" cy="208" rx="22" ry="9" fill="#2C5F3F"/>

        <rect x="10" y="186" width="4" height="30" fill="#2D1810"/>
        <circle cx="12" cy="176" r="18" fill="#235A3E"/>

        <ellipse cx="60" cy="210" rx="28" ry="11" fill="#306B48"/>

        <rect x="110" y="184" width="4" height="32" fill="#2D1810"/>
        <polygon points="124,184 96,184 110,144" fill="#1F4D33"/>

        <ellipse cx="158" cy="210" rx="22" ry="9" fill="#2C5F3F"/>

        <rect x="198" y="186" width="4" height="30" fill="#2D1810"/>
        <circle cx="200" cy="174" r="17" fill="#235A3E"/>

        <ellipse cx="240" cy="208" rx="22" ry="9" fill="#306B48"/>
      </g>
    </g>
  </g>

  <g transform="translate(770 130)">
    <path d="M0,-72 C46,-72 72,-46 72,-12 C72,34 0,108 0,108 C0,108 -72,34 -72,-12 C-72,-46 -46,-72 0,-72 Z" fill="#E63946"/>
    <circle cx="0" cy="-12" r="22" fill="#FFFFFF"/>
  </g>
</svg>
